<?xml version="1.0" encoding="UTF-8"?>
<svg id="Layer_3" data-name="Layer 3" xmlns="http://www.w3.org/2000/svg" viewBox="0 0 213.28 208.13">
  <defs>
    <style>
      .cls-1 {
        fill: #fff;
      }
    </style>
  </defs>
  <path class="cls-1" d="M165.62,122.98c-6.5-12.7-40.91-74.63-43.6-78.11l-.72-.93c-4.21-5.47-7.85-10.2-17.73-10.2-9.37,0-15.18,4.31-20.79,15.44-.33.75-33.07,75.43-40.32,98.03l-.04.12c-1.72,5.79-1.04,11.85,1.91,17.05,2.94,5.19,7.84,9.02,13.77,10.78,2.24.72,4.56,1.08,6.9,1.08,7.74,0,14.32-3.92,18.56-6.86,5.14-3.42,11.95-8.77,17.93-13.51l5-4,3.82,3.43c.42.38.91.68,1.45.9.58.23,1.5.51,2.56.51.83,0,1.61-.17,2.33-.5,1.04-.47,2.42-1.5,3.13-3.74.98-3.08,6.04-20.36,6.51-21.94.9-2.02.53-4.17-.95-5.5-1.6-1.43-3.81-1.34-5.39-.77-3.03.71-21.27,5-24.53,5.84-2.55.65-3.68,2.04-4.18,3.1-.69,1.45-.63,3.13.17,4.72.26.53.62,1,1.07,1.39l3.8,3.4-3.47,2.77c-6.18,4.91-12.53,9.86-17.08,12.89-5.7,3.94-9.82,5.18-13.41,4.03l-.15-.04c-5.08-1.49-7.96-6.45-6.57-11.23.9-2.8,2.05-6.02,3.44-9.57l38.47-28.94c1.99.9,4.17,1.36,6.37,1.36,5.46,0,10.4-2.78,13.26-7.45,1.84-2.33,2.81-5.07,2.81-7.93,0-2.41-.71-4.79-2.07-6.88-2.58-5.36-8.06-8.82-14-8.82-8.57,0-15.54,6.97-15.54,15.54,0,1.28.16,2.55.48,3.8l-21.66,16.3c9.12-21.46,27.75-63,27.96-63.47,1.89-4.31,5.1-6.89,8.57-6.89,3.1,0,5.77,1.94,7.93,5.76,21.01,37.04,40.83,74.93,41.03,75.32,5.34,10.02-.07,14.54-8.27,21.37-1.63,1.35-3.3,2.75-4.97,4.26-2.03-.94-4.25-1.43-6.5-1.43-8.57,0-15.54,6.97-15.54,15.54s6.97,15.54,15.54,15.54,15.54-6.97,15.54-15.54c0-1.21-.14-2.41-.42-3.58,1.13-.99,2.28-1.97,3.44-2.95,11.48-9.75,24.5-20.8,14.15-39.5Z"/>
</svg>