<?xml version="1.0" encoding="UTF-8"?>
<svg id="Layer_3" data-name="Layer 3" xmlns="http://www.w3.org/2000/svg" viewBox="0 0 394.27 208.13">
  <defs>
    <style>
      .cls-1 {
        fill: #fff;
      }
    </style>
  </defs>
  <circle class="cls-1" cx="210.11" cy="76.11" r="12.03"/>
  <path class="cls-1" d="M160.07,132.09c-5.54-10.82-34.86-63.59-37.15-66.56l-.61-.79c-3.59-4.66-6.69-8.69-15.11-8.69-7.98,0-12.94,3.67-17.71,13.15-.28.64-28.18,64.27-34.35,83.53l-.03.1c-1.46,4.93-.89,10.09,1.63,14.53,2.5,4.42,6.68,7.68,11.73,9.18,1.91.61,3.89.92,5.88.92,6.6,0,12.2-3.34,15.82-5.84,4.38-2.91,10.18-7.47,15.27-11.51l4.26-3.4,3.26,2.92c.36.32.77.58,1.24.77.5.2,1.28.43,2.18.43.7,0,1.37-.14,1.99-.42.88-.4,2.06-1.28,2.67-3.19.83-2.62,5.15-17.35,5.55-18.7.76-1.72.45-3.55-.81-4.68-1.36-1.22-3.25-1.14-4.59-.66-2.58.61-18.13,4.26-20.9,4.97-2.17.56-3.14,1.74-3.56,2.64-.59,1.24-.54,2.67.14,4.02.22.45.53.85.91,1.19l3.24,2.9-2.96,2.36c-5.27,4.18-10.67,8.4-14.56,10.99-4.86,3.35-8.37,4.42-11.42,3.43l-.13-.04c-4.33-1.27-6.79-5.49-5.6-9.57.77-2.38,1.75-5.13,2.93-8.15l32.78-24.66c1.7.76,3.56,1.16,5.43,1.16,4.65,0,8.86-2.37,11.29-6.35,1.57-1.99,2.39-4.32,2.39-6.76,0-2.05-.61-4.08-1.76-5.87-2.2-4.57-6.87-7.51-11.93-7.51-7.3,0-13.24,5.94-13.24,13.24,0,1.09.14,2.17.41,3.24l-18.46,13.89c7.77-18.28,23.65-53.68,23.82-54.08,1.61-3.67,4.34-5.87,7.3-5.87,2.64,0,4.91,1.65,6.76,4.91,17.9,31.57,34.79,63.85,34.96,64.18,4.55,8.54-.06,12.39-7.05,18.21-1.38,1.15-2.81,2.34-4.24,3.63-1.73-.8-3.62-1.22-5.54-1.22-7.3,0-13.24,5.94-13.24,13.24s5.94,13.24,13.24,13.24,13.24-5.94,13.24-13.24c0-1.03-.12-2.06-.35-3.05.96-.84,1.95-1.68,2.93-2.52,9.78-8.31,20.87-17.73,12.05-33.66Z"/>
  <path class="cls-1" d="M182.31,113.86h8.72v-2.56c0-4.93-1.5-6.52-7.84-6.52-4.32,0-6.43.62-8.28,3.52l-7.93-5.55c3.26-5.37,8.19-7.31,17.27-7.31,11.37,0,17.8,3.35,17.8,15.95v28.9h-11.01v-3.88c-1.76,2.99-4.4,4.67-9.51,4.67-9.16,0-15.51-4.85-15.51-13.83s7.05-13.39,16.3-13.39ZM191.03,122.14h-7.4c-4.58,0-6.61,1.5-6.61,4.93s2.55,4.93,6.43,4.93c5.11,0,7.58-2.2,7.58-8.19v-1.67Z"/>
  <path class="cls-1" d="M204.47,96.24h11.28v44.05h-11.28v-44.05Z"/>
  <path class="cls-1" d="M254.25,140.29h-11.19v-25.82c0-7.05-2.73-9.34-6.69-9.34s-6.96,2.99-6.96,9.25v25.9h-11.28v-44.05h11.01v3.7c1.67-2.29,4.85-4.49,9.78-4.49,5.29,0,9.6,2.03,12.33,5.9,2.82-3.44,7.14-5.9,12.69-5.9,9.6,0,15.24,5.82,15.24,17.27v27.58h-11.28v-25.82c0-6.61-2.29-9.34-6.78-9.34-4.05,0-6.87,2.99-6.87,9.25v25.9Z"/>
  <path class="cls-1" d="M319.25,120.82c0,12.07-5.73,20.26-19.03,20.26s-19.03-7.93-19.03-20.26v-5.29c0-13.21,6.96-20.09,19.03-20.09s19.03,6.87,19.03,20.09v5.29ZM308.06,120.46v-4.58c0-7.05-2.29-10.92-7.84-10.92s-7.84,3.88-7.84,10.92v4.58c0,6.34,1.59,11.1,7.84,11.1s7.84-4.76,7.84-11.1Z"/>
  <path class="cls-1" d="M319.25,96.24h5.64v-9.69h11.19v9.69h8.64v9.52h-8.64v18.41c0,4.4.88,6.26,5.02,6.26h3.61v9.87h-4.76c-10.66,0-15.07-3-15.07-14.36v-20.18h-5.64v-9.52Z"/>
</svg>